/* XPM */
static char *gnome_xpm[] = {
"48 48 172 2",
"AA	c #FFFFFF",
"BA	c #000000",
"CA	c #0C0C0C",
"DA	c #454545",
"EA	c #515151",
"FA	c #565656",
"GA	c #575757",
"HA	c #595959",
"IA	c #5A5A5A",
"JA	c #5B5B5B",
"KA	c #5C5C5C",
"LA	c #5E5E5E",
"MA	c #5F5F5F",
"NA	c #606060",
"OA	c #626262",
"PA	c #636363",
"QA	c #646464",
"RA	c #656565",
"SA	c #676767",
"TA	c #686868",
"UA	c #0C1217",
"VA	c #58718A",
"WA	c #6584A8",
"XA	c #6A8FB5",
"YA	c #6B90B7",
"ZA	c #6D91B8",
"aA	c #7093B9",
"bA	c #7195BB",
"cA	c #7397BD",
"dA	c #7499BF",
"eA	c #769AC0",
"fA	c #789BC2",
"gA	c #7A9DC3",
"hA	c #7B9FC5",
"iA	c #7DA1C7",
"jA	c #7FA3C9",
"kA	c #80A4CA",
"lA	c #82A5CB",
"mA	c #7E9DBE",
"nA	c #6C849D",
"oA	c #11161C",
"pA	c #3E3E3E",
"qA	c #3F3F3F",
"rA	c #323232",
"sA	c #2F2F2F",
"tA	c #313131",
"uA	c #333333",
"vA	c #343434",
"wA	c #363636",
"xA	c #373737",
"yA	c #393939",
"zA	c #3A3A3A",
"0A	c #3C3C3C",
"1A	c #414141",
"2A	c #424242",
"3A	c #444444",
"4A	c #4B4B4B",
"5A	c #4E4E4E",
"6A	c #4F657D",
"7A	c #4E78A6",
"8A	c #406D9F",
"9A	c #3E6D9F",
"+A	c #406FA1",
"/A	c #4271A3",
"AB	c #4573A5",
"BB	c #4775A7",
"CB	c #4978A9",
"DB	c #4B7AAB",
"EB	c #4D7CAD",
"FB	c #507EB0",
"GB	c #5280B2",
"HB	c #5483B4",
"IB	c #5685B6",
"JB	c #5987B8",
"KB	c #5B89BA",
"LB	c #5D8BBC",
"MB	c #6290BF",
"NB	c #739CC7",
"OB	c #637990",
"PB	c #484848",
"QB	c #2C2C2C",
"RB	c #2E2E2E",
"SB	c #474747",
"TB	c #494949",
"UB	c #5C7C9E",
"VB	c #39689B",
"WB	c #3C6A9D",
"XB	c #5F8EBE",
"YB	c #6290C0",
"ZB	c #7B9ABB",
"aB	c #5C83AC",
"bB	c #81A6CD",
"cB	c #5C82AB",
"dB	c #80A6CD",
"eB	c #5B82AB",
"fB	c #80A5CD",
"gB	c #616161",
"hB	c #5A81AB",
"iB	c #7FA5CD",
"jB	c #464646",
"kB	c #5A81AA",
"lB	c #7FA5CC",
"mB	c #5980AA",
"nB	c #7EA4CC",
"oB	c #5880AA",
"pB	c #587FA9",
"qB	c #7DA3CC",
"rB	c #434343",
"sB	c #577FA9",
"tB	c #5D5D5D",
"uB	c #567EA9",
"vB	c #7CA3CB",
"wB	c #545454",
"xB	c #517296",
"yB	c #7191B3",
"zB	c #2B2B2B",
"0B	c #4F4F4F",
"1B	c #3B4F64",
"2B	c #4370A0",
"3B	c #6A96C3",
"4B	c #4D6276",
"5B	c #040404",
"6B	c #2A2A2A",
"7B	c #3D3D3D",
"8B	c #4A4A4A",
"9B	c #4D4D4D",
"+B	c #505050",
"/B	c #525252",
"AC	c #535353",
"BC	c #555555",
"CC	c #585858",
"DC	c #040608",
"EC	c #394D62",
"FC	c #537498",
"GC	c #5B83AD",
"HC	c #5C84AF",
"IC	c #5E86B1",
"JC	c #6188B2",
"KC	c #628AB4",
"LC	c #648CB6",
"MC	c #668EB8",
"NC	c #6890B9",
"OC	c #6A91BC",
"PC	c #6C93BD",
"QC	c #6D95BF",
"RC	c #6F97C1",
"SC	c #7299C3",
"TC	c #739BC4",
"UC	c #759CC6",
"VC	c #6C8DB0",
"WC	c #4A5E71",
"XC	c #06080A",
"YC	c #070A0E",
"ZC	c #4C6178",
"aC	c #6280A2",
"bC	c #7998B8",
"cC	c #5E7489",
"dC	c #0A0D11",
"eC	c #060606",
"fC	c #070707",
"gC	c #4F647D",
"hC	c #61788E",
"iC	c #7A99B9",
"jC	c #517195",
"kC	c #7190B1",
"lC	c #3A4E63",
"mC	c #4C6074",
"nC	c #383838",
"oC	c #394C60",
"pC	c #537397",
"qC	c #6B8CAE",
"rC	c #485B6F",
"AAAAAAAAAAAAAAAAAAAAAAAAAAAAAAAAAAAAAAAAAAAAAAAAAAAAAAAAAAAAAAAAAAAAAAAAAAAAAAAAAAAAAAAAAAAAAAAA",
"AAAAAAAAAAAAAAAAAAAAAAAAAAAAAAAAAAAAAAAAAAAAAAAAAAAAAAAAAAAAAAAAAAAAAAAAAAAAAAAAAAAAAAAAAAAAAAAA",
"AAAAAABABABABABABABABABABABABABABABABABABABABABABABABABABABABABABABABABABABABABABABABABABAAAAAAA",
"AAAABACADAEAFAGAHAIAJAKALAMANAOAPAQARASATAPAFACAUAVAWAXAYAZAaAbAcAdAeAfAgAhAiAjAkAlAmAnAoABAAAAA",
"AABABApAqArAsAtAuAvAwAxAyAzA0ApAqA1A2A3ADA4AHA5A6A7A8A9A+A/AABBBCBDBEBFBGBHBIBJBKBLBMBNBOBBABAAA",
"AABABAPBQBRBsAtAuAvAwAxAyAzA0ApAqA1A2A3ADASBTBMAUBVBWB9A+A/AABBBCBDBEBFBGBHBIBJBKBLBXBYBZBBABAAA",
"AABABATBQBRBsAtAuAvAwAxAyAzA0ApAqA1A2A3ADASBTBPAaBVBWB9A+A/AABBBCBDBEBFBGBHBIBJBKBLBXBYBbBBABAAA",
"AABABAPBQBRBsAtAuAvAwAxAyAzA0ApAqA1A2A3ADASBTBOAcBVBWB9A+A/AABBBCBDBEBFBGBHBIBJBKBLBXBYBdBBABAAA",
"AABABAPBQBRBsAtAuAvAwAxAyAzA0ApAqA1A2A3ADASBTBOAeBVBWB9A+A/AABBBCBDBEBFBGBHBIBJBKBLBXBYBfBBABAAA",
"AABABASBQBRBsAtAuAvAwAxAyAzA0ApAqA1A2A3ADASBTBgBhBVBWB9A+A/AABBBCBDBEBFBGBHBIBJBKBLBXBYBiBBABAAA",
"AABABASBQBRBsAtAuAvAwAxAyAzA0ApAqA1A2A3ADASBTBgBhBVBWB9A+A/AABBBCBDBEBFBGBHBIBJBKBLBXBYBiBBABAAA",
"AABABAjBQBRBsAtAuAvAwAxAyAzA0ApAqA1A2A3ADASBTBNAkBVBWB9A+A/AABBBCBDBEBFBGBHBIBJBKBLBXBYBlBBABAAA",
"AABABAjBQBRBsAtAuAvAwAxAyAzA0ApAqA1A2A3ADASBTBNAkBVBWB9A+A/AABBBCBDBEBFBGBHBIBJBKBLBXBYBlBBABAAA",
"AABABADAQBRBsAtAuAvAwAxAyAzA0ApAqA1A2A3ADASBTBNAmBVBWB9A+A/AABBBCBDBEBFBGBHBIBJBKBLBXBYBnBBABAAA",
"AABABADAQBRBsAtAuAvAwAxAyAzA0ApAqA1A2A3ADASBTBMAoBVBWB9A+A/AABBBCBDBEBFBGBHBIBJBKBLBXBYBnBBABAAA",
"AABABADAQBRBsAtAuAvAwAxAyAzA0ApAqA1A2A3ADASBTBMAoBVBWB9A+A/AABBBCBDBEBFBGBHBIBJBKBLBXBYBnBBABAAA",
"AABABA3AQBRBsAtAuAvAwAxAyAzA0ApAqA1A2A3ADASBTBMApBVBWB9A+A/AABBBCBDBEBFBGBHBIBJBKBLBXBYBqBBABAAA",
"AABABArBQBRBsAtAuAvAwAxAyAzA0ApAqA1A2A3ADASBTBLAsBVBWB9A+A/AABBBCBDBEBFBGBHBIBJBKBLBXBYBqBBABAAA",
"AABABArBQBRBsAtAuAvAwAxAyAzA0ApAqA1A2A3ADASBTBLAsBVBWB9A+A/AABBBCBDBEBFBGBHBIBJBKBLBXBYBqBBABAAA",
"AABABA2AQBRBsAtAuAvAwAxAyAzA0ApAqA1A2A3ADASBTBtBuBVBWB9A+A/AABBBCBDBEBFBGBHBIBJBKBLBXBYBvBBABAAA",
"AABABA2AQBRBsAtAuAvAwAxAyAzA0ApAqA1A2A3ADASBTBtBuBVBWB9A+A/AABBBCBDBEBFBGBHBIBJBKBLBXBYBvBBABAAA",
"AABABA0AQBRBsAtAuAvAwAxAyAzA0ApAqA1A2A3ADASBTBwBxBVBWB9A+A/AABBBCBDBEBFBGBHBIBJBKBLBXBYByBBABAAA",
"AABABAzBuARBsAtAuAvAwAxAyAzA0ApAqA1A2A3ADASB0ByA1B2BWB9A+A/AABBBCBDBEBFBGBHBIBJBKBLBXB3B4BBABAAA",
"AABABA5B6B7B3AjBPBTB8B4A9B5A+B/BACwBBCGACCEAxA5BDCECFCGCHCICJCKCLCMCNCOCPCQCRCSCTCUCVCWCXCBABAAA",
"AAAABAYCZCaCXAYAZAaAbAcAdAeAfAgAhAiAjAkAlAbCcCdCeC0A5AFAGAHAIAJAKALAMANAOAPAQARASATANATBfCBAAAAA",
"AABABAgC7A8A9A+A/AABBBCBDBEBFBGBHBIBJBKBLBMBNBhC0AqArAsAtAuAvAwAxAyAzA0ApAqA1A2A3ADA4AHA5ABABAAA",
"AABABAUBVBWB9A+A/AABBBCBDBEBFBGBHBIBJBKBLBXBYBiCPBQBRBsAtAuAvAwAxAyAzA0ApAqA1A2A3ADASBTBMABABAAA",
"AABABAaBVBWB9A+A/AABBBCBDBEBFBGBHBIBJBKBLBXBYBbBTBQBRBsAtAuAvAwAxAyAzA0ApAqA1A2A3ADASBTBPABABAAA",
"AABABAcBVBWB9A+A/AABBBCBDBEBFBGBHBIBJBKBLBXBYBdBPBQBRBsAtAuAvAwAxAyAzA0ApAqA1A2A3ADASBTBOABABAAA",
"AABABAeBVBWB9A+A/AABBBCBDBEBFBGBHBIBJBKBLBXBYBfBPBQBRBsAtAuAvAwAxAyAzA0ApAqA1A2A3ADASBTBOABABAAA",
"AABABAhBVBWB9A+A/AABBBCBDBEBFBGBHBIBJBKBLBXBYBiBSBQBRBsAtAuAvAwAxAyAzA0ApAqA1A2A3ADASBTBgBBABAAA",
"AABABAhBVBWB9A+A/AABBBCBDBEBFBGBHBIBJBKBLBXBYBiBSBQBRBsAtAuAvAwAxAyAzA0ApAqA1A2A3ADASBTBgBBABAAA",
"AABABAkBVBWB9A+A/AABBBCBDBEBFBGBHBIBJBKBLBXBYBlBjBQBRBsAtAuAvAwAxAyAzA0ApAqA1A2A3ADASBTBNABABAAA",
"AABABAkBVBWB9A+A/AABBBCBDBEBFBGBHBIBJBKBLBXBYBlBjBQBRBsAtAuAvAwAxAyAzA0ApAqA1A2A3ADASBTBNABABAAA",
"AABABAmBVBWB9A+A/AABBBCBDBEBFBGBHBIBJBKBLBXBYBnBDAQBRBsAtAuAvAwAxAyAzA0ApAqA1A2A3ADASBTBNABABAAA",
"AABABAoBVBWB9A+A/AABBBCBDBEBFBGBHBIBJBKBLBXBYBnBDAQBRBsAtAuAvAwAxAyAzA0ApAqA1A2A3ADASBTBMABABAAA",
"AABABAoBVBWB9A+A/AABBBCBDBEBFBGBHBIBJBKBLBXBYBnBDAQBRBsAtAuAvAwAxAyAzA0ApAqA1A2A3ADASBTBMABABAAA",
"AABABApBVBWB9A+A/AABBBCBDBEBFBGBHBIBJBKBLBXBYBqB3AQBRBsAtAuAvAwAxAyAzA0ApAqA1A2A3ADASBTBMABABAAA",
"AABABAsBVBWB9A+A/AABBBCBDBEBFBGBHBIBJBKBLBXBYBqBrBQBRBsAtAuAvAwAxAyAzA0ApAqA1A2A3ADASBTBLABABAAA",
"AABABAsBVBWB9A+A/AABBBCBDBEBFBGBHBIBJBKBLBXBYBqBrBQBRBsAtAuAvAwAxAyAzA0ApAqA1A2A3ADASBTBLABABAAA",
"AABABAuBVBWB9A+A/AABBBCBDBEBFBGBHBIBJBKBLBXBYBvB2AQBRBsAtAuAvAwAxAyAzA0ApAqA1A2A3ADASBTBtBBABAAA",
"AABABAuBVBWB9A+A/AABBBCBDBEBFBGBHBIBJBKBLBXBYBvB2AQBRBsAtAuAvAwAxAyAzA0ApAqA1A2A3ADASBTBtBBABAAA",
"AABABAjCVBWB9A+A/AABBBCBDBEBFBGBHBIBJBKBLBXBYBkC0AQBRBsAtAuAvAwAxAyAzA0ApAqA1A2A3ADASBTBACBABAAA",
"AABABAlC2BWB9A+A/AABBBCBDBEBFBGBHBIBJBKBLBXB3BmC6BuARBsAtAuAvAwAxAyAzA0ApAqA1A2A3ADASB0BnCBABAAA",
"AABABADCoCpCGCHCICJCKCLCMCNCOCPCQCRCSCTCUCqCrCXC5B6B7B3AjBPBTB8B4A9B5A+B/BACwBBCGACC+BwA5BBABAAA",
"AABABABABABABABABABABABABABABABABABABABABABABABABABABABABABABABABABABABABABABABABABABABABABABAAA",
"AAAABABABABABABABABABABABABABABABABABABABABABABABABABABABABABABABABABABABABABABABABABABABABAAAAA",
"AAAAAAAABABABABABABABABABABABABABABABABABABABAAAAABABABABABABABABABABABABABABABABABABABAAAAAAAAA"
};
